<?xml version="1.0" encoding="UTF-8" standalone="no"?>
<!-- Created with Inkscape (http://www.inkscape.org/) -->
<svg
   xmlns:svg="http://www.w3.org/2000/svg"
   xmlns="http://www.w3.org/2000/svg"
   version="1.0"
   width="250"
   height="100"
   id="svg2">
  <defs
     id="defs4" />
  <g
     id="layer1">
    <path
       d="M 177.20016,54.573831 C 146.53788,69.955581 112.74748,81.740701 78.01263,80.721501 C 50.00056,80.099231 22.179774,67.354271 5,44.939213 C 20.83724,20.711003 50.74251,8.8874129 78.98641,9.6112829 C 113.4167,10.327073 147.30378,24.666253 177.16826,40.783953 C 183.57948,38.134033 190.63175,33.891713 197.9227,30.979183 C 209.13911,24.440333 221.63282,19.727633 231.40621,10.970343 C 235.22515,14.705123 239.76456,18.002303 242.90637,22.187493 C 225.68293,30.339493 205.77879,38.255693 189.55664,48.333343 C 206.88681,60.333401 225.6032,69.668291 245,77.851711 L 232.07197,90.420041 C 214.50026,77.336851 196.57505,64.857371 177.20016,54.573831 z M 95.66433,68.594301 C 118.07574,65.502991 142.08815,57.612271 161.98882,46.871423 C 153.88098,41.216693 144.61577,38.839583 138.17698,34.576203 C 111.94902,23.158243 82.06538,16.463283 53.81656,23.928193 C 41.60052,27.453013 29.211489,33.263923 20.997571,43.216683 C 35.299976,62.906781 61.1135,71.008101 84.70732,69.342821 C 88.36538,69.212091 92.02952,69.045411 95.66433,68.594301 z"
       id="path2396"
       style="fill:#000000" />
  </g>
</svg>
